HIERARCHY
ROOT ui
{
	 OFFSET 0 0 0
	 CHANNELS 3 XPosition YPosition Z Position
	 EndSite
	 {
	 OFFSET 0 -1 0
	 }
}
ROOT li
{
	 OFFSET 0 0 0
	 CHANNELS 3 XPosition YPosition Z Position
	 EndSite
	 {
	 OFFSET 0 -1 0
	 }
}
ROOT ul
{
	 OFFSET 0 0 0
	 CHANNELS 3 XPosition YPosition Z Position
	 EndSite
	 {
	 OFFSET 0 -1 0
	 }
}
ROOT ll
{
	 OFFSET 0 0 0
	 CHANNELS 3 XPosition YPosition Z Position
	 EndSite
	 {
	 OFFSET 0 -1 0
	 }
}
ROOT tt
{
	 OFFSET 0 0 0
	 CHANNELS 3 XPosition YPosition Z Position
	 EndSite
	 {
	 OFFSET 0 -1 0
	 }
}
ROOT tb
{
	 OFFSET 0 0 0
	 CHANNELS 3 XPosition YPosition Z Position
	 EndSite
	 {
	 OFFSET 0 -1 0
	 }
}
ROOT td
{
	 OFFSET 0 0 0
	 CHANNELS 3 XPosition YPosition Z Position
	 EndSite
	 {
	 OFFSET 0 -1 0
	 }
}
ROOT v
{
	 OFFSET 0 0 0
	 CHANNELS 3 XPosition YPosition Z Position
	 EndSite
	 {
	 OFFSET 0 -1 0
	 }
}
ROOT bn
{
	 OFFSET 0 0 0
	 CHANNELS 3 XPosition YPosition Z Position
	 EndSite
	 {
	 OFFSET 0 -1 0
	 }
}
MOTION
Frames: 27
Frame Time: 0.002
-0.0037411699295043944	5.201820135116577E-4	0		0.4309315490722656	-2.4684619140625	0		-1.043591796875	0.01914215660095215	0		-0.7687030639648438	-2.481066162109375	0		1.42538232421875	-0.7715283203125	0		2.98904833984375	0.040682056427001956	0		4.43741845703125	0.08140568542480468	0		5.61627734375	0.06149255752563477	0		-0.04014827346801758	5.98205859375	0		
0.02966874694824219	0.008977688789367676	0		0.4689638977050781	-2.47711328125	0		-1.0413153076171875	0.022323896408081054	0		-0.8002723388671875	-2.472078369140625	0		1.3870098876953125	-0.753354248046875	0		3.0068232421875	0.02253370475769043	0		4.43357763671875	0.07978874969482422	0		5.62022119140625	0.05070129776000976	0		-0.041052360534667966	5.9803232421875	0		
0.0028541150093078613	0.008872337341308593	0		0.459431640625	-2.466619140625	0		-1.0431370849609376	0.021615636825561522	0		-0.7661480712890625	-2.476634521484375	0		1.4220679931640625	-0.759909912109375	0		2.9936669921875	0.050145320892333985	0		4.4420595703125	0.09189968872070313	0		5.6168017578125	0.06710780334472656	0		-0.043914791107177734	5.98064892578125	0		
0.04794993209838867	0.003087079048156738	0		0.4804901428222656	-2.474831298828125	0		-1.0490272216796874	0.017024707794189454	0		-0.7699642944335937	-2.479270263671875	0		1.41511572265625	-0.7674495849609375	0		2.97828271484375	0.02481689643859863	0		4.42717138671875	0.08758113098144531	0		5.61084033203125	0.05959008026123047	0		-0.06003230285644531	5.9693076171875	0		
-6.889939904212952E-4	0.007549016952514648	0		0.4508014526367187	-2.473812744140625	0		-1.05077392578125	0.016365423202514648	0		-0.7398587036132812	-2.487680908203125	0		1.4133773193359376	-0.76808251953125	0		2.9908154296875	0.03586642837524414	0		4.4302333984375	0.07886438751220703	0		5.6049052734375	0.05109864807128906	0		-0.061842567443847654	5.96865869140625	0		
0.038361972808837894	-0.005033124923706054	0		0.4491493835449219	-2.4744248046875	0		-1.0524517822265624	0.015737763404846193	0		-0.8113021850585938	-2.478654052734375	0		1.3717659912109375	-0.765740478515625	0		2.990829833984375	0.02223699378967285	0		4.42855517578125	0.07829346466064453	0		5.60322705078125	0.05053988647460937	0		-0.06358204650878906	5.968041015625	0		
-0.003962019920349121	0.0063500161170959475	0		0.4247506103515625	-2.46746142578125	0		-1.0499537353515624	0.01904949760437012	0		-0.7749067993164063	-2.481141357421875	0		1.3753424072265625	-0.759428955078125	0		2.976899169921875	0.04998383331298828	0		4.41529296875	0.09203497314453125	0		5.6058193359375	0.057917049407958984	0		-0.0509810905456543	5.978125	0		
0.019527578353881837	0.005215133190155029	0		0.449193115234375	-2.471614990234375	0		-1.051457275390625	0.018494487762451172	0		-0.8123052978515625	-2.477844970703125	0		1.3769163818359376	-0.7570320434570312	0		2.99668115234375	0.018956993103027345	0		4.42959521484375	0.08315754699707031	0		5.6043154296875	0.057426540374755856	0		-0.05254240036010742	5.97757958984375	0		
-0.006870923042297364	0.005299561977386474	0		0.4726861572265625	-2.47770458984375	0		-1.0569561767578124	0.014074495315551758	0		-0.7905993041992188	-2.47490185546875	0		1.3693546142578126	-0.764381103515625	0		2.979799072265625	0.040851123809814455	0		4.42818896484375	0.08269389343261718	0		5.6029091796875	0.0569739875793457	0		-0.054004318237304685	5.9770732421875	0		
0.010655464172363282	-0.00261198091506958	0		0.43365231323242187	-2.467272216796875	0		-1.058259521484375	0.013599312782287598	0		-0.7939261474609375	-2.477326904296875	0		1.4059300537109376	-0.7707284545898437	0		2.983328857421875	0.03329743957519531	0		4.428931640625	0.08422189331054687	0		5.60160546875	0.05656060791015625	0		-0.07059463500976562	5.9669638671875	0		
-0.01653498649597168	-0.0024240880012512205	0		0.45204742431640627	-2.486159912109375	0		-1.059457275390625	0.01316450309753418	0		-0.7843162841796875	-2.487015869140625	0		1.3438270263671874	-0.7667035522460938	0		2.961325439453125	0.04139255142211914	0		4.41468994140625	0.08214447784423828	0		5.6004072265625	0.05618696594238281	0		-0.056615585327148436	5.97618212890625	0		
0.014532146453857421	0.003435041904449463	0		0.41836749267578127	-2.469767333984375	0		-1.0564532470703125	0.016674657821655274	0		-0.8172085571289063	-2.47965576171875	0		1.37780615234375	-0.7649014892578125	0		2.99168505859375	0.0172873649597168	0		4.41843359375	0.07468441009521484	0		5.60508056640625	0.04571506118774414	0		-0.042527961730957034	5.9854404296875	0		
0.017624519348144532	0.005995777130126953	0		0.4702571716308594	-2.4773544921875	0		-1.0574305419921874	0.01632052993774414	0		-0.782243408203125	-2.48385498046875	0		1.37097900390625	-0.7590934448242187	0		2.982487548828125	0.05017353439331055	0		4.41676220703125	0.08740090179443359	0		5.60250390625	0.062464977264404295	0		-0.05781571578979492	5.9744287109375	0		
0.012690838813781738	0.0027865049839019777	0		0.44144744873046876	-2.47599560546875	0		-1.0623878173828125	0.012101527214050292	0		-0.787177490234375	-2.4880712890625	0		1.403900634765625	-0.7691831665039063	0		2.975083251953125	0.027044496536254882	0		4.4138037109375	0.08318576812744141	0		5.5974755859375	0.05530880737304687	0		-0.05971161270141601	5.97514697265625	0		
0.005774730205535888	-0.004336104869842529	0		0.4645931091308594	-2.48182080078125	0		-1.06721044921875	0.008920759201049804	0		-0.800739013671875	-2.48104052734375	0		1.3611429443359375	-0.769447265625	0		2.973612548828125	0.03882644271850586	0		4.41305029296875	0.08296085357666015	0		5.59672216796875	0.05509487915039062	0		-0.07477507781982422	5.964212890625	0		
-0.01370179843902588	0.0028798890113830564	0		0.4111016235351562	-2.47580029296875	0		-1.06378759765625	0.011586921691894531	0		-0.7905775756835938	-2.490533203125	0		1.4004453125	-0.7726043701171875	0		2.97368310546875	0.0266043701171875	0		4.41240283203125	0.08277217864990234	0		5.5960751953125	0.05491705322265625	0		-0.07547625732421875	5.96398291015625	0		
0.007652501106262207	-0.0018306859731674193	0		0.4483562316894531	-2.4858818359375	0		-1.060240234375	0.015287988662719727	0		-0.8229271850585937	-2.48298388671875	0		1.3472271728515626	-0.7585431518554687	0		2.966609619140625	0.04659606170654297	0		4.42080712890625	0.08040663909912109	0		5.595529296875	0.054773269653320314	0		-0.061820663452148435	5.9744560546875	0		
0.010295783996582031	0.0019367380142211914	0		0.4401890869140625	-2.474853759765625	0		-1.0606903076171874	0.015117596626281739	0		-0.7874356689453125	-2.486997802734375	0		1.407696533203125	-0.7631254272460938	0		2.987447998046875	0.015952398300170898	0		4.4203564453125	0.08028473663330078	0		5.59507861328125	0.05466176223754883	0		-0.06232345581054687	5.97429443359375	0		
0.009935253143310547	0.0018071140050888062	0		0.4647257080078125	-2.48056591796875	0		-1.0651439208984375	0.011073761940002442	0		-0.8277869873046875	-2.487194091796875	0		1.3643310546875	-0.7632321166992188	0		2.9876044921875	0.03784259033203125	0		4.4151845703125	0.08830875396728516	0		5.60471484375	0.05434571075439453	0		-0.07699056243896485	5.96349609375	0		
-0.01840632438659668	-6.347169876098633E-4	0		0.43442941284179687	-2.48195703125	0		-1.0654227294921874	0.010964144706726074	0		-0.8049569091796875	-2.483843017578125	0		1.398837646484375	-0.773140625	0		2.976163818359375	0.03102800941467285	0		4.41557568359375	0.07422643280029297	0		5.5944384765625	0.05452811050415039	0		-0.0773204345703125	5.96339501953125	0		
0.003288240909576416	-0.0052238950729370116	0		0.43631491088867186	-2.47907470703125	0		-1.0656282958984375	0.010881607055664062	0		-0.8292755737304688	-2.489358154296875	0		1.340795654296875	-0.7658419189453125	0		2.967007568359375	0.03319052886962891	0		4.41536962890625	0.07419036102294922	0		5.594232421875	0.05450204086303711	0		-0.06234574508666992	5.9729658203125	0		
-0.015681563377380373	0.002171686887741089	0		0.4490755920410156	-2.48442333984375	0		-1.061675048828125	0.014729047775268555	0		-0.788334716796875	-2.487376953125	0		1.3726539306640626	-0.7666303100585937	0		2.98646337890625	0.01570234966278076	0		4.40837255859375	0.08034192657470703	0		5.5940927734375	0.05450092697143555	0		-0.06060675048828125	5.96987060546875	0		
0.01330158805847168	0.0044649519920349125	0		0.4392314758300781	-2.475212646484375	0		-1.06175439453125	0.014694724082946777	0		-0.8243124389648437	-2.48356494140625	0		1.3667237548828124	-0.7605046997070313	0		2.975044189453125	0.0439764289855957	0		4.4241005859375	0.07198100280761718	0		5.5940126953125	0.05452336502075195	0		-0.06266595458984375	5.97289111328125	0		
0.009207905769348145	0.0015558209419250489	0		0.4620578002929687	-2.482750244140625	0		-1.06587158203125	0.010776649475097657	0		-0.7565687866210937	-2.495168212890625	0		1.4004853515625	-0.7702919311523437	0		2.97159814453125	0.0260733642578125	0		4.41445361328125	0.08824520874023438	0		5.59398828125	0.05456743621826172	0		-0.0769957275390625	5.96221826171875	0		
0.009232048988342284	0.0015708830356597901	0		0.462103271484375	-2.4827314453125	0		-1.0658475341796876	0.01078248405456543	0		-0.7944893188476563	-2.49326904296875	0		1.40051611328125	-0.7702649536132813	0		2.97090380859375	0.038134002685546876	0		4.41033740234375	0.08239352416992188	0		5.5898251953125	0.046726425170898436	0		-0.07702274322509765	5.962232421875	0		
0.0031338748931884768	-0.00525556993484497	0		0.4621888122558594	-2.482696533203125	0		-1.0657833251953126	0.010804251670837402	0		-0.7944036865234375	-2.493244873046875	0		1.3606448974609375	-0.7672849731445313	0		2.97168603515625	0.02617022895812988	0		4.40421484375	0.07460507202148438	0		5.59407568359375	0.05470928573608398	0		-0.07700957489013673	5.9622626953125	0		
-0.0156024808883667	0.0022315740585327148	0		0.42129232788085935	-2.482687744140625	0		-1.061596435546875	0.014744119644165039	0		-0.7901953125	-2.489302734375	0		1.366908203125	-0.7603719482421875	0		2.972272216796875	0.047233821868896485	0		4.41463427734375	0.08844857025146484	0		5.59993359375	0.0446633186340332	0		-0.06271250534057617	5.972974609375	0		
